<svg xmlns="http://www.w3.org/2000/svg" xmlns:xlink="http://www.w3.org/1999/xlink" width="250" zoomAndPan="magnify" viewBox="0 0 187.5 74.999997" height="100" preserveAspectRatio="xMidYMid meet" version="1.0"><defs><g/><clipPath id="4a0fd0de48"><path d="M 83.128906 8.304688 L 132.398438 8.304688 L 132.398438 61.585938 L 83.128906 61.585938 Z M 83.128906 8.304688 " clip-rule="nonzero"/></clipPath><clipPath id="281be8cba4"><path d="M 0.128906 0.304688 L 49.398438 0.304688 L 49.398438 53.585938 L 0.128906 53.585938 Z M 0.128906 0.304688 " clip-rule="nonzero"/></clipPath><clipPath id="6fc17aec29"><rect x="0" width="50" y="0" height="54"/></clipPath></defs><g clip-path="url(#4a0fd0de48)"><g transform="matrix(1, 0, 0, 1, 83, 8)"><g clip-path="url(#6fc17aec29)"><g clip-path="url(#281be8cba4)"><path fill="#ffba5a" d="M 0.128906 0.304688 L 49.398438 0.304688 L 49.398438 53.613281 L 0.128906 53.613281 Z M 0.128906 0.304688 " fill-opacity="1" fill-rule="nonzero"/></g></g></g></g><g fill="#000000" fill-opacity="1"><g transform="translate(1.276592, 55.801209)"><g><path d="M 40.84375 -20.421875 L 40.84375 -5.421875 C 40.289062 -4.867188 39.351562 -4.207031 38.03125 -3.4375 C 36.71875 -2.675781 35.398438 -2.039062 34.078125 -1.53125 C 30.640625 -0.0820312 26.8125 0.640625 22.59375 0.640625 C 15.570312 0.640625 10.265625 -1.070312 6.671875 -4.5 C 3.078125 -7.925781 1.28125 -12.894531 1.28125 -19.40625 C 1.28125 -25.914062 3.117188 -30.90625 6.796875 -34.375 C 10.472656 -37.84375 15.585938 -39.578125 22.140625 -39.578125 C 27.253906 -39.578125 31.914062 -38.507812 36.125 -36.375 C 37.101562 -35.914062 37.828125 -35.515625 38.296875 -35.171875 L 38.9375 -34.65625 L 36.125 -28.984375 C 34.125 -29.828125 31.742188 -30.25 28.984375 -30.25 C 21.910156 -30.25 18.375 -26.59375 18.375 -19.28125 C 18.375 -15.488281 19.179688 -12.53125 20.796875 -10.40625 C 22.421875 -8.28125 24.550781 -7.21875 27.1875 -7.21875 C 28.25 -7.21875 29.289062 -7.425781 30.3125 -7.84375 L 28.84375 -13.984375 L 24.125 -13.984375 L 25.40625 -20.421875 Z M 40.84375 -20.421875 "/></g></g></g><g fill="#000000" fill-opacity="1"><g transform="translate(45.954842, 55.801209)"><g><path d="M 6.21875 -3.15625 C 3.132812 -5.6875 1.59375 -9.71875 1.59375 -15.25 C 1.59375 -20.78125 3.132812 -24.8125 6.21875 -27.34375 C 9.300781 -29.875 13.414062 -31.140625 18.5625 -31.140625 C 23.71875 -31.140625 27.835938 -29.875 30.921875 -27.34375 C 34.003906 -24.8125 35.546875 -20.78125 35.546875 -15.25 C 35.546875 -9.71875 34.003906 -5.6875 30.921875 -3.15625 C 27.835938 -0.625 23.71875 0.640625 18.5625 0.640625 C 13.414062 0.640625 9.300781 -0.625 6.21875 -3.15625 Z M 15.890625 -22.5 C 15.378906 -21.03125 15.125 -18.613281 15.125 -15.25 C 15.125 -11.894531 15.378906 -9.484375 15.890625 -8.015625 C 16.398438 -6.546875 17.289062 -5.8125 18.5625 -5.8125 C 19.84375 -5.8125 20.738281 -6.546875 21.25 -8.015625 C 21.757812 -9.484375 22.015625 -11.894531 22.015625 -15.25 C 22.015625 -18.613281 21.757812 -21.03125 21.25 -22.5 C 20.738281 -23.96875 19.84375 -24.703125 18.5625 -24.703125 C 17.289062 -24.703125 16.398438 -23.96875 15.890625 -22.5 Z M 15.890625 -22.5 "/></g></g></g><g fill="#ffffff" fill-opacity="1"><g transform="translate(85.660939, 55.801209)"><g><path d="M 19.078125 -12.3125 L 17.875 0 L 5.421875 0 L 1.59375 -38.6875 L 21.703125 -38.6875 L 20.546875 -27.1875 L 30.953125 -38.6875 L 42.125 -38.6875 L 31.34375 -22.140625 L 44.296875 0 L 31.78125 0 C 25.820312 -5.738281 21.585938 -9.84375 19.078125 -12.3125 Z M 19.078125 -12.3125 "/></g></g></g><g fill="#000000" fill-opacity="1"><g transform="translate(131.87364, 55.801209)"><g><path d="M 17.109375 -29.359375 L 18.1875 -29.75 L 16.015625 0 L 3.953125 0 L 1.921875 -29.75 C 4.335938 -28.769531 6.914062 -28.28125 9.65625 -28.28125 C 12.40625 -28.28125 14.890625 -28.640625 17.109375 -29.359375 Z M 10.015625 -31.078125 C 7.890625 -31.078125 6.101562 -31.710938 4.65625 -32.984375 C 3.207031 -34.265625 2.484375 -35.9375 2.484375 -38 C 2.484375 -40.070312 3.195312 -41.734375 4.625 -42.984375 C 6.050781 -44.242188 7.835938 -44.875 9.984375 -44.875 C 12.140625 -44.875 13.9375 -44.234375 15.375 -42.953125 C 16.820312 -41.679688 17.546875 -40.019531 17.546875 -37.96875 C 17.546875 -35.925781 16.820312 -34.265625 15.375 -32.984375 C 13.9375 -31.710938 12.148438 -31.078125 10.015625 -31.078125 Z M 10.015625 -31.078125 "/></g></g></g><g fill="#000000" fill-opacity="1"><g transform="translate(154.531971, 55.801209)"><g><path d="M 18.828125 -11.359375 C 18.785156 -8.890625 19.660156 -7.65625 21.453125 -7.65625 C 21.960938 -7.65625 22.578125 -7.890625 23.296875 -8.359375 L 24.640625 -2.171875 C 24.378906 -1.953125 24.023438 -1.679688 23.578125 -1.359375 C 23.140625 -1.046875 22.1875 -0.632812 20.71875 -0.125 C 19.25 0.382812 17.726562 0.640625 16.15625 0.640625 C 13.257812 0.640625 10.894531 -0.347656 9.0625 -2.328125 C 7.226562 -4.304688 6.25 -6.828125 6.125 -9.890625 L 5.546875 -21.953125 L 0.640625 -21.953125 L 1.40625 -30.25 L 5.234375 -30.25 L 4.984375 -36.515625 L 20.109375 -39.578125 L 19.65625 -30.25 L 23.359375 -30.25 L 24.125 -21.953125 L 19.28125 -21.953125 Z M 18.828125 -11.359375 "/></g></g></g></svg>